<svg width="130" height="50" viewBox="0 0 130 50" fill="none" xmlns="http://www.w3.org/2000/svg">
<rect width="130" height="50" rx="20" fill="#F470A4" fill-opacity="0.2"/>
<path d="M41.4084 23.7464C41.3686 23.3454 41.1979 23.0339 40.8963 22.8118C40.5947 22.5897 40.1854 22.4787 39.6683 22.4787C39.317 22.4787 39.0204 22.5284 38.7784 22.6278C38.5365 22.724 38.3509 22.8582 38.2216 23.0305C38.0956 23.2029 38.0327 23.3984 38.0327 23.6172C38.026 23.7995 38.0642 23.9586 38.147 24.0945C38.2332 24.2304 38.3509 24.348 38.5 24.4474C38.6491 24.5436 38.8215 24.6281 39.017 24.701C39.2126 24.7706 39.4214 24.8303 39.6435 24.88L40.5582 25.0987C41.0024 25.1982 41.41 25.3307 41.7812 25.4964C42.1525 25.6622 42.474 25.866 42.7457 26.108C43.0175 26.3499 43.228 26.6349 43.3771 26.9631C43.5296 27.2912 43.6075 27.6674 43.6108 28.0916C43.6075 28.7147 43.4484 29.255 43.1335 29.7124C42.822 30.1664 42.3712 30.5194 41.7812 30.7713C41.1946 31.0199 40.487 31.1442 39.6584 31.1442C38.8364 31.1442 38.1205 31.0182 37.5107 30.7663C36.9041 30.5144 36.4302 30.1416 36.0888 29.6477C35.7507 29.1506 35.5734 28.5357 35.5568 27.8033H37.6399C37.6631 28.1446 37.7609 28.4297 37.9332 28.6584C38.1089 28.8838 38.3426 29.0545 38.6342 29.1705C38.9292 29.2831 39.2623 29.3395 39.6335 29.3395C39.9981 29.3395 40.3146 29.2865 40.5831 29.1804C40.8549 29.0743 41.0653 28.9268 41.2145 28.7379C41.3636 28.549 41.4382 28.3319 41.4382 28.0866C41.4382 27.858 41.3703 27.6657 41.2344 27.5099C41.1018 27.3542 40.9063 27.2216 40.6477 27.1122C40.3925 27.0028 40.0793 26.9034 39.7081 26.8139L38.5994 26.5355C37.741 26.3267 37.0632 26.0002 36.5661 25.5561C36.0689 25.112 35.822 24.5137 35.8253 23.7614C35.822 23.1449 35.986 22.6063 36.3175 22.1456C36.6522 21.6849 37.1113 21.3253 37.6946 21.0668C38.2779 20.8082 38.9408 20.679 39.6832 20.679C40.4389 20.679 41.0985 20.8082 41.6619 21.0668C42.2287 21.3253 42.6695 21.6849 42.9844 22.1456C43.2992 22.6063 43.4616 23.1399 43.4716 23.7464H41.4084ZM45.019 31V23.3636H47.1369V31H45.019ZM46.0829 22.3793C45.7681 22.3793 45.4979 22.2749 45.2725 22.0661C45.0505 21.8539 44.9395 21.6004 44.9395 21.3054C44.9395 21.0137 45.0505 20.7635 45.2725 20.5547C45.4979 20.3426 45.7681 20.2365 46.0829 20.2365C46.3978 20.2365 46.6663 20.3426 46.8883 20.5547C47.1137 20.7635 47.2264 21.0137 47.2264 21.3054C47.2264 21.6004 47.1137 21.8539 46.8883 22.0661C46.6663 22.2749 46.3978 22.3793 46.0829 22.3793ZM52.2738 34.0227C51.5877 34.0227 50.9994 33.9283 50.5089 33.7393C50.0217 33.5537 49.6339 33.3002 49.3455 32.9787C49.0572 32.6572 48.8699 32.2959 48.7837 31.8949L50.7425 31.6314C50.8022 31.7839 50.8967 31.9264 51.0259 32.0589C51.1552 32.1915 51.3259 32.2976 51.538 32.3771C51.7534 32.46 52.0153 32.5014 52.3235 32.5014C52.7842 32.5014 53.1637 32.3887 53.462 32.1634C53.7636 31.9413 53.9144 31.5684 53.9144 31.0447V29.6477H53.8249C53.7321 29.8598 53.5929 30.0604 53.4073 30.2493C53.2217 30.4382 52.9831 30.5923 52.6914 30.7116C52.3997 30.831 52.0517 30.8906 51.6474 30.8906C51.074 30.8906 50.552 30.758 50.0813 30.4929C49.614 30.2244 49.2411 29.8151 48.9627 29.2649C48.6876 28.7114 48.5501 28.0121 48.5501 27.1669C48.5501 26.3018 48.6909 25.5793 48.9727 24.9993C49.2544 24.4193 49.6289 23.9851 50.0962 23.6967C50.5669 23.4084 51.0823 23.2642 51.6424 23.2642C52.07 23.2642 52.4279 23.3371 52.7163 23.483C53.0046 23.6255 53.2366 23.8045 53.4123 24.0199C53.5913 24.232 53.7288 24.4408 53.8249 24.6463H53.9045V23.3636H56.0075V31.0746C56.0075 31.7242 55.8484 32.2678 55.5302 32.7053C55.212 33.1428 54.7712 33.4709 54.2077 33.6896C53.6476 33.9117 53.003 34.0227 52.2738 34.0227ZM52.3185 29.2997C52.6599 29.2997 52.9483 29.2152 53.1836 29.0462C53.4222 28.8738 53.6045 28.6286 53.7305 28.3104C53.8597 27.9889 53.9244 27.6044 53.9244 27.157C53.9244 26.7095 53.8614 26.3217 53.7354 25.9936C53.6095 25.6622 53.4272 25.4053 53.1886 25.223C52.9499 25.0407 52.6599 24.9496 52.3185 24.9496C51.9705 24.9496 51.6772 25.044 51.4386 25.233C51.1999 25.4186 51.0193 25.6771 50.8967 26.0085C50.774 26.34 50.7127 26.7228 50.7127 27.157C50.7127 27.5978 50.774 27.9789 50.8967 28.3004C51.0226 28.6186 51.2032 28.8655 51.4386 29.0412C51.6772 29.2135 51.9705 29.2997 52.3185 29.2997ZM59.8107 26.5852V31H57.6928V23.3636H59.7113V24.7109H59.8008C59.9698 24.2668 60.2532 23.9155 60.6509 23.657C61.0487 23.3951 61.5309 23.2642 62.0977 23.2642C62.628 23.2642 63.0903 23.3802 63.4847 23.6122C63.8791 23.8442 64.1857 24.1757 64.4045 24.6065C64.6232 25.0341 64.7326 25.5445 64.7326 26.1378V31H62.6147V26.5156C62.618 26.0483 62.4987 25.6837 62.2567 25.4219C62.0148 25.1567 61.6817 25.0241 61.2575 25.0241C60.9724 25.0241 60.7205 25.0855 60.5018 25.2081C60.2863 25.3307 60.1173 25.5097 59.9947 25.745C59.8754 25.977 59.814 26.2571 59.8107 26.5852ZM72.7306 20.8182H74.8833V27.4304C74.8833 28.1728 74.706 28.8224 74.3514 29.3793C74.0001 29.9361 73.5079 30.3703 72.8748 30.6818C72.2418 30.9901 71.5043 31.1442 70.6625 31.1442C69.8173 31.1442 69.0782 30.9901 68.4451 30.6818C67.8121 30.3703 67.3199 29.9361 66.9686 29.3793C66.6172 28.8224 66.4416 28.1728 66.4416 27.4304V20.8182H68.5943V27.2464C68.5943 27.6342 68.6788 27.9789 68.8478 28.2805C69.0202 28.5821 69.2621 28.8191 69.5737 28.9915C69.8852 29.1638 70.2482 29.25 70.6625 29.25C71.0801 29.25 71.443 29.1638 71.7512 28.9915C72.0628 28.8191 72.3031 28.5821 72.4721 28.2805C72.6445 27.9789 72.7306 27.6342 72.7306 27.2464V20.8182ZM76.6147 33.8636V23.3636H78.7028V24.6463H78.7972C78.89 24.4408 79.0243 24.232 79.1999 24.0199C79.3789 23.8045 79.6109 23.6255 79.896 23.483C80.1843 23.3371 80.5423 23.2642 80.9698 23.2642C81.5266 23.2642 82.0404 23.41 82.511 23.7017C82.9817 23.9901 83.3578 24.4259 83.6396 25.0092C83.9213 25.5893 84.0621 26.3168 84.0621 27.1918C84.0621 28.0436 83.9246 28.7628 83.6495 29.3494C83.3777 29.9328 83.0065 30.3752 82.5359 30.6768C82.0685 30.9751 81.5449 31.1243 80.9648 31.1243C80.5539 31.1243 80.2042 31.0563 79.9158 30.9205C79.6308 30.7846 79.3971 30.6139 79.2148 30.4084C79.0326 30.1996 78.8933 29.9891 78.7972 29.777H78.7326V33.8636H76.6147ZM78.6879 27.1818C78.6879 27.6359 78.7508 28.032 78.8768 28.37C79.0027 28.7081 79.185 28.9716 79.4237 29.1605C79.6623 29.3461 79.9523 29.4389 80.2937 29.4389C80.6384 29.4389 80.93 29.3445 81.1687 29.1555C81.4073 28.9633 81.5879 28.6982 81.7106 28.3601C81.8365 28.0187 81.8995 27.6259 81.8995 27.1818C81.8995 26.741 81.8382 26.3532 81.7156 26.0185C81.5929 25.6837 81.4123 25.4219 81.1737 25.233C80.935 25.044 80.6417 24.9496 80.2937 24.9496C79.949 24.9496 79.6573 25.0407 79.4187 25.223C79.1834 25.4053 79.0027 25.6638 78.8768 25.9986C78.7508 26.3333 78.6879 26.7277 78.6879 27.1818Z" fill="#F470A4"/>
<path d="M94 23L98.5 27.5M98.5 27.5L94 32M98.5 27.5H89" stroke="#F470A4" stroke-width="2"/>
</svg>
