<svg width="200" height="200" viewBox="0 0 200 200" fill="none" xmlns="http://www.w3.org/2000/svg">
<path d="M0 100C0 62.6154 0 43.923 8.03848 30C13.3046 20.8788 20.8788 13.3046 30 8.03848C43.923 0 62.6154 0 100 0C137.385 0 156.077 0 170 8.03848C179.121 13.3046 186.695 20.8788 191.962 30C200 43.923 200 62.6154 200 100C200 137.385 200 156.077 191.962 170C186.695 179.121 179.121 186.695 170 191.962C156.077 200 137.385 200 100 200C62.6154 200 43.923 200 30 191.962C20.8788 186.695 13.3046 179.121 8.03848 170C0 156.077 0 137.385 0 100Z" fill="#7E869E" fill-opacity="0.25"/>
<circle cx="100" cy="77.7775" r="44.4444" fill="#222222"/>
<path fill-rule="evenodd" clip-rule="evenodd" d="M174.295 180.216C175.906 184.666 174.098 189.596 170 191.962C156.077 200.001 137.385 200.001 100 200.001C62.6154 200.001 43.923 200.001 30 191.962C25.9009 189.596 24.0931 184.664 25.7047 180.214C35.5385 153.056 65.0819 133.334 99.9994 133.334C134.918 133.334 164.462 153.057 174.295 180.216Z" fill="#222222"/>
</svg>
