<svg width="240" height="50" viewBox="0 0 240 50" fill="none" xmlns="http://www.w3.org/2000/svg">
<rect width="240" height="50" rx="20" fill="#F470A4" fill-opacity="0.2"/>
<path d="M144 25.2781L148.417 29.4586C148.475 29.5134 148.565 29.5134 148.623 29.4586L157.56 21" stroke="#F470A4" stroke-width="2"/>
<path d="M90.848 19.268H92.724V32.232H90.848V19.268ZM92.234 24.224H94.516V25.75H92.234V24.224ZM87.446 20.612H89.266C89.266 24.504 87.782 27.836 83.47 30.006L82.434 28.592C85.836 26.828 87.446 24.448 87.446 20.934V20.612ZM83.148 20.612H88.398V22.11H83.148V20.612ZM104.343 19.282H106.219V26.254H104.343V19.282ZM97.5949 26.814H99.4289V28.018H104.371V26.814H106.219V32.106H97.5949V26.814ZM99.4289 29.446V30.622H104.371V29.446H99.4289ZM99.1629 19.814C101.179 19.814 102.677 21.088 102.677 22.88C102.677 24.672 101.179 25.946 99.1629 25.946C97.1469 25.946 95.6349 24.672 95.6349 22.88C95.6349 21.088 97.1469 19.814 99.1629 19.814ZM99.1629 21.354C98.1689 21.354 97.4549 21.928 97.4549 22.88C97.4549 23.846 98.1689 24.406 99.1629 24.406C100.143 24.406 100.857 23.846 100.857 22.88C100.857 21.928 100.143 21.354 99.1629 21.354ZM116.634 19.282H118.482V32.246H116.634V19.282ZM118.062 24.336H120.358V25.89H118.062V24.336ZM108.262 21.2H115.808V22.684H108.262V21.2ZM112.056 23.412C113.946 23.412 115.346 24.7 115.346 26.506C115.346 28.312 113.946 29.6 112.056 29.6C110.166 29.6 108.766 28.312 108.766 26.506C108.766 24.7 110.166 23.412 112.056 23.412ZM112.056 24.924C111.174 24.924 110.544 25.512 110.544 26.506C110.544 27.5 111.174 28.088 112.056 28.088C112.938 28.088 113.568 27.5 113.568 26.506C113.568 25.512 112.938 24.924 112.056 24.924ZM111.118 19.492H112.98V21.76H111.118V19.492ZM130.129 19.282H132.005V32.246H130.129V19.282ZM126.307 20.626H128.155C128.155 24.588 126.811 27.836 122.205 30.062L121.239 28.578C124.963 26.786 126.307 24.434 126.307 20.962V20.626ZM121.925 20.626H127.189V22.096H121.925V20.626Z" fill="#F470A4"/>
</svg>
