<svg width="18" height="23" viewBox="0 0 18 23" fill="none" xmlns="http://www.w3.org/2000/svg">
<path d="M0 14.0588C0 12.1732 0 11.2304 0.585786 10.6446C1.17157 10.0588 2.11438 10.0588 4 10.0588H13.6471C15.5327 10.0588 16.4755 10.0588 17.0613 10.6446C17.6471 11.2304 17.6471 12.1732 17.6471 14.0588V17C17.6471 19.8284 17.6471 21.2427 16.7684 22.1213C15.8897 23 14.4755 23 11.6471 23H6C3.17157 23 1.75736 23 0.87868 22.1213C0 21.2427 0 19.8284 0 17V14.0588Z" fill="#7E869E"/>
<path d="M13.5912 10.6566L14.1948 8.99833C14.2882 8.74171 14.3349 8.6134 14.3693 8.50314C15.1396 6.038 13.9057 3.39185 11.5222 2.39738C11.4156 2.3529 11.2873 2.3062 11.0306 2.21279V2.21279C10.774 2.11939 10.6457 2.07269 10.5354 2.03824C8.0703 1.26793 5.42415 2.50186 4.42968 4.8854C4.3852 4.99201 4.33849 5.12032 4.24509 5.37694L3.64153 7.03522" stroke="#222222"/>
</svg>
