<svg width="148" height="48" viewBox="0 0 148 48" fill="none" xmlns="http://www.w3.org/2000/svg">
<rect y="27" width="148" height="21" fill="#F470A4" fill-opacity="0.2"/>
<path d="M42.4158 5.52H47.4958V42.56H42.4158V5.52ZM37.5758 19.8H43.7358V24.04H37.5758V19.8ZM34.1358 6.16H39.0958V40.8H34.1358V6.16ZM17.2158 9.6H22.5358V31H17.2158V9.6ZM17.2158 29H19.7758C23.3358 29 27.4958 28.8 32.0958 27.92L32.6158 32.48C27.7758 33.36 23.5358 33.56 19.7758 33.56H17.2158V29ZM81.9105 14.48H88.9505V18.8H81.9105V14.48ZM87.5105 5.52H92.8305V27.52H87.5105V5.52ZM80.2705 28.32C88.1105 28.32 92.9505 31 92.9505 35.48C92.9505 40 88.1105 42.6 80.2705 42.6C72.4305 42.6 67.5905 40 67.5905 35.48C67.5905 31 72.4305 28.32 80.2705 28.32ZM80.2705 32.36C75.4705 32.36 72.9105 33.36 72.9105 35.48C72.9105 37.56 75.4705 38.56 80.2705 38.56C85.1105 38.56 87.6705 37.56 87.6705 35.48C87.6705 33.36 85.1105 32.36 80.2705 32.36ZM70.3905 9.24H74.7105V11.56C74.7105 18.64 71.4305 25.12 64.3505 27.52L61.6305 23.32C67.7505 21.24 70.3905 16.32 70.3905 11.56V9.24ZM71.5105 9.24H75.7905V11.56C75.7905 15.92 78.3105 20.44 84.1505 22.4L81.5505 26.6C74.6705 24.32 71.5105 18.16 71.5105 11.56V9.24ZM63.0705 7.76H82.9905V12H63.0705V7.76ZM98.6673 33.96H132.187V38.28H98.6673V33.96ZM112.707 26.04H118.027V35H112.707V26.04ZM102.187 7.88H107.467V13.56H123.267V7.88H128.547V27.16H102.187V7.88ZM107.467 17.72V22.92H123.267V17.72H107.467Z" fill="black"/>
</svg>
