<svg width="148" height="48" viewBox="0 0 148 48" fill="none" xmlns="http://www.w3.org/2000/svg">
<rect y="27" width="148" height="21" fill="#F470A4" fill-opacity="0.2"/>
<path d="M11 28.04H16.32V34.04H11V28.04ZM27.2 5.52H32.52V42.56H27.2V5.52ZM2.44 36.4L1.8 32.12C8.52 32.08 17.48 32.08 25.28 31.04L25.64 34.88C17.6 36.36 9 36.4 2.44 36.4ZM2.52 9.6H24.8V13.76H2.52V9.6ZM13.64 15.24C19.12 15.24 22.92 18.04 22.92 22.16C22.92 26.32 19.12 29.12 13.64 29.12C8.24 29.12 4.44 26.32 4.44 22.16C4.44 18.04 8.24 15.24 13.64 15.24ZM13.64 19.24C11.24 19.24 9.52 20.28 9.52 22.16C9.52 24.08 11.24 25.12 13.64 25.12C16.12 25.12 17.84 24.08 17.84 22.16C17.84 20.28 16.12 19.24 13.64 19.24ZM11 5.68H16.32V12H11V5.68ZM48.0369 24.52H53.3569V32.64H48.0369V24.52ZM64.2769 5.52H69.5969V33.56H64.2769V5.52ZM42.9169 37.68H70.3969V41.92H42.9169V37.68ZM42.9169 30.92H48.2369V38.8H42.9169V30.92ZM38.9169 26.12L38.2769 21.88C45.0369 21.88 54.0769 21.8 61.8369 20.8L62.1569 24.6C54.2769 25.92 45.5969 26.12 38.9169 26.12ZM57.2769 27.04H65.4369V30.68H57.2769V27.04ZM50.1969 6.8C55.5969 6.8 59.3969 9.48 59.3969 13.4C59.3969 17.36 55.5969 20 50.1969 20C44.7569 20 40.9569 17.36 40.9569 13.4C40.9569 9.48 44.7569 6.8 50.1969 6.8ZM50.1969 10.68C47.7169 10.68 45.9969 11.6 45.9969 13.4C45.9969 15.2 47.7169 16.12 50.1969 16.12C52.6369 16.12 54.3569 15.2 54.3569 13.4C54.3569 11.6 52.6369 10.68 50.1969 10.68ZM98.8738 5.48H104.234V42.52H98.8738V5.48ZM102.834 19.64H109.354V24H102.834V19.64ZM89.1538 9.32H94.3538C94.3538 20.44 90.1138 29.96 77.7938 36.16L74.8338 32.12C84.5538 27.08 89.1538 20.28 89.1538 10.24V9.32ZM76.8738 9.32H91.8738V13.6H76.8738V9.32ZM137.431 5.52H142.791V25.44H137.431V5.52ZM118.151 27.04H123.391V30.48H137.511V27.04H142.791V42.16H118.151V27.04ZM123.391 34.56V37.92H137.511V34.56H123.391ZM122.631 7.04C128.391 7.04 132.671 10.68 132.671 15.8C132.671 20.92 128.391 24.56 122.631 24.56C116.871 24.56 112.551 20.92 112.551 15.8C112.551 10.68 116.871 7.04 122.631 7.04ZM122.631 11.44C119.791 11.44 117.751 13.08 117.751 15.8C117.751 18.56 119.791 20.16 122.631 20.16C125.431 20.16 127.471 18.56 127.471 15.8C127.471 13.08 125.431 11.44 122.631 11.44Z" fill="black"/>
</svg>
