<svg width="185" height="48" viewBox="0 0 185 48" fill="none" xmlns="http://www.w3.org/2000/svg">
<rect y="27" width="185" height="21" fill="#F470A4" fill-opacity="0.2"/>
<path d="M1.42045 14.9801V9.90909H25.3125V14.9801H16.4062V39H10.3267V14.9801H1.42045ZM35.8274 39.4261C33.621 39.4261 31.7128 38.9574 30.103 38.0199C28.5026 37.0729 27.2668 35.7566 26.3956 34.071C25.5244 32.3759 25.0888 30.411 25.0888 28.1761C25.0888 25.9223 25.5244 23.9527 26.3956 22.267C27.2668 20.572 28.5026 19.2557 30.103 18.3182C31.7128 17.3712 33.621 16.8977 35.8274 16.8977C38.0339 16.8977 39.9373 17.3712 41.5376 18.3182C43.1475 19.2557 44.388 20.572 45.2592 22.267C46.1304 23.9527 46.5661 25.9223 46.5661 28.1761C46.5661 30.411 46.1304 32.3759 45.2592 34.071C44.388 35.7566 43.1475 37.0729 41.5376 38.0199C39.9373 38.9574 38.0339 39.4261 35.8274 39.4261ZM35.8558 34.7386C36.8596 34.7386 37.6977 34.4545 38.37 33.8864C39.0424 33.3087 39.549 32.5227 39.8899 31.5284C40.2403 30.5341 40.4155 29.4025 40.4155 28.1335C40.4155 26.8646 40.2403 25.733 39.8899 24.7386C39.549 23.7443 39.0424 22.9583 38.37 22.3807C37.6977 21.803 36.8596 21.5142 35.8558 21.5142C34.8426 21.5142 33.9903 21.803 33.299 22.3807C32.6172 22.9583 32.1011 23.7443 31.7507 24.7386C31.4098 25.733 31.2393 26.8646 31.2393 28.1335C31.2393 29.4025 31.4098 30.5341 31.7507 31.5284C32.1011 32.5227 32.6172 33.3087 33.299 33.8864C33.9903 34.4545 34.8426 34.7386 35.8558 34.7386ZM60.9268 39H50.6143V9.90909H61.0121C63.9382 9.90909 66.4571 10.4915 68.5689 11.6562C70.6806 12.8116 72.3047 14.4735 73.4411 16.642C74.5869 18.8106 75.1598 21.4053 75.1598 24.4261C75.1598 27.4564 74.5869 30.0606 73.4411 32.2386C72.3047 34.4167 70.6712 36.0881 68.5405 37.2528C66.4193 38.4176 63.8814 39 60.9268 39ZM56.7649 33.7301H60.6712C62.4893 33.7301 64.0187 33.4081 65.2592 32.7642C66.5092 32.1108 67.4467 31.1023 68.0717 29.7386C68.7062 28.3655 69.0234 26.5947 69.0234 24.4261C69.0234 22.2765 68.7062 20.5199 68.0717 19.1562C67.4467 17.7926 66.514 16.7888 65.2734 16.1449C64.0329 15.5009 62.5036 15.179 60.6854 15.179H56.7649V33.7301ZM89.4602 39.4261C87.2538 39.4261 85.3456 38.9574 83.7358 38.0199C82.1354 37.0729 80.8996 35.7566 80.0284 34.071C79.1572 32.3759 78.7216 30.411 78.7216 28.1761C78.7216 25.9223 79.1572 23.9527 80.0284 22.267C80.8996 20.572 82.1354 19.2557 83.7358 18.3182C85.3456 17.3712 87.2538 16.8977 89.4602 16.8977C91.6667 16.8977 93.5701 17.3712 95.1705 18.3182C96.7803 19.2557 98.0208 20.572 98.892 22.267C99.7633 23.9527 100.199 25.9223 100.199 28.1761C100.199 30.411 99.7633 32.3759 98.892 34.071C98.0208 35.7566 96.7803 37.0729 95.1705 38.0199C93.5701 38.9574 91.6667 39.4261 89.4602 39.4261ZM89.4886 34.7386C90.4924 34.7386 91.3305 34.4545 92.0028 33.8864C92.6752 33.3087 93.1818 32.5227 93.5227 31.5284C93.8731 30.5341 94.0483 29.4025 94.0483 28.1335C94.0483 26.8646 93.8731 25.733 93.5227 24.7386C93.1818 23.7443 92.6752 22.9583 92.0028 22.3807C91.3305 21.803 90.4924 21.5142 89.4886 21.5142C88.4754 21.5142 87.6231 21.803 86.9318 22.3807C86.25 22.9583 85.7339 23.7443 85.3835 24.7386C85.0426 25.733 84.8722 26.8646 84.8722 28.1335C84.8722 29.4025 85.0426 30.5341 85.3835 31.5284C85.7339 32.5227 86.25 33.3087 86.9318 33.8864C87.6231 34.4545 88.4754 34.7386 89.4886 34.7386ZM126.657 29.24H131.937V42.6H126.657V29.24ZM112.617 27.68H146.097V32H112.617V27.68ZM126.617 12.16H131.297V13.04C131.297 19.24 125.937 24.64 116.137 25.8L114.297 21.64C122.657 20.68 126.617 16.48 126.617 13.04V12.16ZM127.297 12.16H131.977V13.04C131.977 16.4 135.977 20.68 144.297 21.64L142.417 25.8C132.657 24.68 127.297 19.08 127.297 13.04V12.16ZM115.617 9.76H143.057V13.96H115.617V9.76ZM126.657 5.6H131.937V11.2H126.657V5.6ZM173.053 5.48H178.413V42.52H173.053V5.48ZM177.013 19.64H183.533V24H177.013V19.64ZM163.333 9.32H168.533C168.533 20.44 164.293 29.96 151.973 36.16L149.013 32.12C158.733 27.08 163.333 20.28 163.333 10.24V9.32ZM151.053 9.32H166.053V13.6H151.053V9.32Z" fill="black"/>
</svg>
