<svg width="18" height="21" viewBox="0 0 18 21" fill="none" xmlns="http://www.w3.org/2000/svg">
<path d="M0 12.0588C0 10.1732 0 9.23041 0.585786 8.64462C1.17157 8.05884 2.11438 8.05884 4 8.05884H13.6471C15.5327 8.05884 16.4755 8.05884 17.0613 8.64462C17.6471 9.23041 17.6471 10.1732 17.6471 12.0588V15C17.6471 17.8284 17.6471 19.2427 16.7684 20.1213C15.8897 21 14.4755 21 11.6471 21H6C3.17157 21 1.75736 21 0.87868 20.1213C0 19.2427 0 17.8284 0 15V12.0588Z" fill="#7E869E"/>
<path d="M14.1176 8.05882V6.29412C14.1176 6.02103 14.1176 5.88448 14.1123 5.76908C13.993 3.18916 11.9284 1.12461 9.34851 1.00534C9.23311 1 9.09657 1 8.82348 1V1C8.55038 1 8.41384 1 8.29844 1.00534C5.71852 1.12461 3.65397 3.18916 3.53469 5.76908C3.52936 5.88448 3.52936 6.02103 3.52936 6.29412V8.05882" stroke="#222222"/>
</svg>
