<svg width="101" height="24" viewBox="0 0 101 24" fill="none" xmlns="http://www.w3.org/2000/svg">
<ellipse cx="81.0001" cy="12" rx="12" ry="12" transform="rotate(-90 81.0001 12)" fill="#FF0000" fill-opacity="0.25"/>
<path d="M95.5715 7.71436L99.8572 12.0001M99.8572 12.0001L95.5715 16.2858M99.8572 12.0001H82.7143" stroke="#222222" stroke-linecap="round"/>
<path d="M0.8 16.368H13.904V17.472H0.8V16.368ZM6.656 13.264H7.984V16.832H6.656V13.264ZM2.384 5.856H12.288V10.24H3.744V13.136H2.432V9.168H10.976V6.928H2.384V5.856ZM2.432 12.576H12.624V13.664H2.432V12.576ZM16.9268 6.32H26.2388V7.392H16.9268V6.32ZM15.5188 16.032H28.5908V17.136H15.5188V16.032ZM25.5348 6.32H26.8308V7.76C26.8308 9.616 26.8308 11.68 26.2868 14.8L24.9588 14.672C25.5348 11.712 25.5348 9.552 25.5348 7.76V6.32ZM34.0775 5.888C36.2055 5.888 37.7095 7.856 37.7095 10.928C37.7095 14.016 36.2055 15.984 34.0775 15.984C31.9495 15.984 30.4455 14.016 30.4455 10.928C30.4455 7.856 31.9495 5.888 34.0775 5.888ZM34.0775 7.088C32.6695 7.088 31.7095 8.592 31.7095 10.928C31.7095 13.28 32.6695 14.816 34.0775 14.816C35.4695 14.816 36.4455 13.28 36.4455 10.928C36.4455 8.592 35.4695 7.088 34.0775 7.088ZM40.0135 4.784H41.3575V19.248H40.0135V4.784ZM41.0375 10.56H43.7255V11.68H41.0375V10.56ZM44.9403 11.392H58.0603V12.48H44.9403V11.392ZM50.8123 11.856H52.1083V14.064H50.8123V11.856ZM50.7803 14.736H51.9163V15.184C51.9163 17.392 49.3563 18.848 46.3323 19.2L45.9003 18.176C48.5083 17.904 50.7803 16.72 50.7803 15.184V14.736ZM51.0043 14.736H52.1403V15.184C52.1403 16.768 54.3963 17.92 57.0203 18.176L56.5883 19.2C53.5803 18.848 51.0043 17.44 51.0043 15.184V14.736ZM51.4843 4.992C54.6203 4.992 56.5723 5.968 56.5723 7.648C56.5723 9.328 54.6203 10.304 51.4843 10.304C48.3323 10.304 46.3963 9.328 46.3963 7.648C46.3963 5.968 48.3323 4.992 51.4843 4.992ZM51.4843 6.016C49.1643 6.016 47.7563 6.608 47.7563 7.648C47.7563 8.672 49.1643 9.28 51.4843 9.28C53.7883 9.28 55.2123 8.672 55.2123 7.648C55.2123 6.608 53.7883 6.016 51.4843 6.016Z" fill="#555555"/>
</svg>
