<svg width="148" height="48" viewBox="0 0 148 48" fill="none" xmlns="http://www.w3.org/2000/svg">
<rect y="27" width="148" height="21" fill="#F470A4" fill-opacity="0.2"/>
<path d="M27.04 5.56H32.4V32.64H27.04V5.56ZM7.72 37.68H33.32V41.92H7.72V37.68ZM7.72 30.24H13.04V40.16H7.72V30.24ZM10.64 12.84H15V14.16C15 20.8 11.6 26.68 4.44 28.76L1.92 24.6C8 22.84 10.64 18.48 10.64 14.16V12.84ZM11.64 12.84H15.96V14.16C15.96 18.2 18.64 22.32 24.72 24L22.24 28.16C15.04 26.16 11.64 20.52 11.64 14.16V12.84ZM3.16 9.8H23.4V13.96H3.16V9.8ZM10.64 5.72H15.96V11.52H10.64V5.72ZM42.2369 7.68H65.4769V11.88H42.2369V7.68ZM38.4369 23.44H71.9169V27.72H38.4369V23.44ZM52.3169 26.44H57.6769V42.6H52.3169V26.44ZM62.7569 7.68H67.9969V10.96C67.9969 14.96 67.9969 19.44 66.5569 26L61.3169 25.4C62.7569 19.2 62.7569 14.8 62.7569 10.96V7.68ZM89.2738 29.24H94.5538V42.6H89.2738V29.24ZM75.2338 27.68H108.714V32H75.2338V27.68ZM89.2338 12.16H93.9138V13.04C93.9138 19.24 88.5538 24.64 78.7538 25.8L76.9138 21.64C85.2738 20.68 89.2338 16.48 89.2338 13.04V12.16ZM89.9138 12.16H94.5938V13.04C94.5938 16.4 98.5938 20.68 106.914 21.64L105.034 25.8C95.2738 24.68 89.9138 19.08 89.9138 13.04V12.16ZM78.2338 9.76H105.674V13.96H78.2338V9.76ZM89.2738 5.6H94.5538V11.2H89.2738V5.6ZM135.671 5.48H141.031V42.52H135.671V5.48ZM139.631 19.64H146.151V24H139.631V19.64ZM125.951 9.32H131.151C131.151 20.44 126.911 29.96 114.591 36.16L111.631 32.12C121.351 27.08 125.951 20.28 125.951 10.24V9.32ZM113.671 9.32H128.671V13.6H113.671V9.32Z" fill="black"/>
</svg>
