<svg width="123" height="50" viewBox="0 0 123 50" fill="none" xmlns="http://www.w3.org/2000/svg">
<rect width="123" height="50" rx="20" fill="#F470A4" fill-opacity="0.2"/>
<path fill-rule="evenodd" clip-rule="evenodd" d="M98.5223 20.3784L101.016 18.4287C101.374 18.1493 101.552 18.0096 101.734 17.9192C102.295 17.6409 102.953 17.6409 103.514 17.9192C103.696 18.0096 103.874 18.1493 104.232 18.4287C104.788 18.8638 105.066 19.0813 105.231 19.3064C105.743 20.0088 105.743 20.9618 105.231 21.6641C105.066 21.8893 104.788 22.1068 104.232 22.5419L102.85 23.6224C101.09 23.0087 99.5847 21.8662 98.5223 20.3784ZM96.9454 21.6112L89.9229 27.1012C89.3909 27.5171 89.125 27.725 88.9437 28.0024C88.7624 28.2798 88.6787 28.6069 88.5113 29.2611L87.9776 31.3474C87.8927 31.6794 87.8502 31.8454 87.9408 31.9451C88.0314 32.0447 88.2007 32.0182 88.5393 31.9653L92.0607 31.4147L92.0607 31.4147C92.5713 31.3349 92.8266 31.2949 93.0611 31.1932C93.2956 31.0915 93.4992 30.9323 93.9064 30.614L101.042 25.0353C99.4082 24.247 98.0023 23.0667 96.9454 21.6112Z" fill="#F470A4"/>
<path d="M30.446 19.6602H32.084V20.2622C32.084 22.7542 30.124 24.8682 26.722 25.3722L25.994 23.8742C28.976 23.4822 30.446 21.7882 30.446 20.2622V19.6602ZM30.796 19.6602H32.42V20.2622C32.42 21.7742 33.904 23.4822 36.872 23.8742L36.158 25.3722C32.756 24.8682 30.796 22.7542 30.796 20.2622V19.6602ZM30.46 27.5002H32.308V32.2462H30.46V27.5002ZM25.574 26.3242H37.292V27.8362H25.574V26.3242ZM45.4669 22.4182H47.9309V23.9302H45.4669V22.4182ZM47.4269 19.2822H49.2889V26.9822H47.4269V19.2822ZM44.8929 27.2622C47.6369 27.2622 49.3309 28.2002 49.3309 29.7682C49.3309 31.3502 47.6369 32.2602 44.8929 32.2602C42.1489 32.2602 40.4549 31.3502 40.4549 29.7682C40.4549 28.2002 42.1489 27.2622 44.8929 27.2622ZM44.8929 28.6762C43.2129 28.6762 42.3169 29.0262 42.3169 29.7682C42.3169 30.4962 43.2129 30.8462 44.8929 30.8462C46.5869 30.8462 47.4829 30.4962 47.4829 29.7682C47.4829 29.0262 46.5869 28.6762 44.8929 28.6762ZM41.4349 20.5842H42.9469V21.3962C42.9469 23.8742 41.7989 26.1422 39.3209 26.9822L38.3689 25.5122C40.5109 24.7842 41.4349 23.0622 41.4349 21.3962V20.5842ZM41.8269 20.5842H43.3249V21.3962C43.3249 22.9222 44.2069 24.5042 46.2509 25.1902L45.3409 26.6602C42.9329 25.8622 41.8269 23.7062 41.8269 21.3962V20.5842ZM38.8729 20.0662H45.8449V21.5502H38.8729V20.0662ZM59.6338 19.2822H61.4818V32.2462H59.6338V19.2822ZM61.0618 24.3362H63.3578V25.8902H61.0618V24.3362ZM51.2618 21.2002H58.8078V22.6842H51.2618V21.2002ZM55.0558 23.4122C56.9458 23.4122 58.3458 24.7002 58.3458 26.5062C58.3458 28.3122 56.9458 29.6002 55.0558 29.6002C53.1658 29.6002 51.7658 28.3122 51.7658 26.5062C51.7658 24.7002 53.1658 23.4122 55.0558 23.4122ZM55.0558 24.9242C54.1738 24.9242 53.5438 25.5122 53.5438 26.5062C53.5438 27.5002 54.1738 28.0882 55.0558 28.0882C55.9378 28.0882 56.5678 27.5002 56.5678 26.5062C56.5678 25.5122 55.9378 24.9242 55.0558 24.9242ZM54.1178 19.4922H55.9798V21.7602H54.1178V19.4922ZM73.1287 19.2822H75.0047V32.2462H73.1287V19.2822ZM69.3067 20.6262H71.1547C71.1547 24.5882 69.8107 27.8362 65.2047 30.0622L64.2387 28.5782C67.9627 26.7862 69.3067 24.4342 69.3067 20.9622V20.6262ZM64.9247 20.6262H70.1887V22.0962H64.9247V20.6262Z" fill="#F470A4"/>
</svg>
