<svg width="203" height="48" viewBox="0 0 203 48" fill="none" xmlns="http://www.w3.org/2000/svg">
<rect y="27" width="203" height="21" fill="#F470A4" fill-opacity="0.2"/>
<path d="M28.24 5.52H33.32V42.56H28.24V5.52ZM23.4 19.8H29.56V24.04H23.4V19.8ZM19.96 6.16H24.92V40.8H19.96V6.16ZM3.04 9.6H8.36V31H3.04V9.6ZM3.04 29H5.6C9.16 29 13.32 28.8 17.92 27.92L18.44 32.48C13.6 33.36 9.36 33.56 5.6 33.56H3.04V29ZM67.7347 14.48H74.7747V18.8H67.7347V14.48ZM73.3347 5.52H78.6547V27.52H73.3347V5.52ZM66.0947 28.32C73.9347 28.32 78.7747 31 78.7747 35.48C78.7747 40 73.9347 42.6 66.0947 42.6C58.2547 42.6 53.4147 40 53.4147 35.48C53.4147 31 58.2547 28.32 66.0947 28.32ZM66.0947 32.36C61.2947 32.36 58.7347 33.36 58.7347 35.48C58.7347 37.56 61.2947 38.56 66.0947 38.56C70.9347 38.56 73.4947 37.56 73.4947 35.48C73.4947 33.36 70.9347 32.36 66.0947 32.36ZM56.2147 9.24H60.5347V11.56C60.5347 18.64 57.2547 25.12 50.1747 27.52L47.4547 23.32C53.5747 21.24 56.2147 16.32 56.2147 11.56V9.24ZM57.3347 9.24H61.6147V11.56C61.6147 15.92 64.1347 20.44 69.9747 22.4L67.3747 26.6C60.4947 24.32 57.3347 18.16 57.3347 11.56V9.24ZM48.8947 7.76H68.8147V12H48.8947V7.76ZM84.4916 33.96H118.012V38.28H84.4916V33.96ZM98.5316 26.04H103.852V35H98.5316V26.04ZM88.0116 7.88H93.2916V13.56H109.092V7.88H114.372V27.16H88.0116V7.88ZM93.2916 17.72V22.92H109.092V17.72H93.2916ZM144.466 6.6H149.146V8.32C149.146 15.44 143.546 21.48 133.826 22.92L131.746 18.64C140.266 17.52 144.466 12.68 144.466 8.32V6.6ZM145.466 6.6H150.106V8.32C150.106 12.64 154.346 17.52 162.826 18.64L160.786 22.92C151.066 21.48 145.466 15.44 145.466 8.32V6.6ZM144.506 29H149.786V42.56H144.506V29ZM130.546 25.64H164.026V29.96H130.546V25.64ZM187.383 14.48H194.423V18.8H187.383V14.48ZM192.983 5.52H198.303V27.52H192.983V5.52ZM185.743 28.32C193.583 28.32 198.423 31 198.423 35.48C198.423 40 193.583 42.6 185.743 42.6C177.903 42.6 173.063 40 173.063 35.48C173.063 31 177.903 28.32 185.743 28.32ZM185.743 32.36C180.943 32.36 178.383 33.36 178.383 35.48C178.383 37.56 180.943 38.56 185.743 38.56C190.583 38.56 193.143 37.56 193.143 35.48C193.143 33.36 190.583 32.36 185.743 32.36ZM175.863 9.24H180.183V11.56C180.183 18.64 176.903 25.12 169.823 27.52L167.103 23.32C173.223 21.24 175.863 16.32 175.863 11.56V9.24ZM176.983 9.24H181.263V11.56C181.263 15.92 183.783 20.44 189.623 22.4L187.023 26.6C180.143 24.32 176.983 18.16 176.983 11.56V9.24ZM168.543 7.76H188.463V12H168.543V7.76Z" fill="black"/>
</svg>
