<svg width="148" height="48" viewBox="0 0 148 48" fill="none" xmlns="http://www.w3.org/2000/svg">
<rect y="27" width="148" height="21" fill="#F470A4" fill-opacity="0.2"/>
<path d="M27.04 5.56H32.4V32.64H27.04V5.56ZM7.72 37.68H33.32V41.92H7.72V37.68ZM7.72 30.24H13.04V40.16H7.72V30.24ZM10.64 12.84H15V14.16C15 20.8 11.6 26.68 4.44 28.76L1.92 24.6C8 22.84 10.64 18.48 10.64 14.16V12.84ZM11.64 12.84H15.96V14.16C15.96 18.2 18.64 22.32 24.72 24L22.24 28.16C15.04 26.16 11.64 20.52 11.64 14.16V12.84ZM3.16 9.8H23.4V13.96H3.16V9.8ZM10.64 5.72H15.96V11.52H10.64V5.72ZM42.2369 7.68H65.4769V11.88H42.2369V7.68ZM38.4369 23.44H71.9169V27.72H38.4369V23.44ZM52.3169 26.44H57.6769V42.6H52.3169V26.44ZM62.7569 7.68H67.9969V10.96C67.9969 14.96 67.9969 19.44 66.5569 26L61.3169 25.4C62.7569 19.2 62.7569 14.8 62.7569 10.96V7.68ZM79.3138 6.96H104.474V20.08H79.3138V6.96ZM99.2338 11.12H84.5138V15.92H99.2338V11.12ZM75.1938 23.56H108.674V27.76H75.1938V23.56ZM89.2338 19.12H94.5538V24.76H89.2338V19.12ZM78.9138 30.44H104.634V42.56H99.3138V34.64H78.9138V30.44ZM111.991 25.36H145.551V29.6H111.991V25.36ZM116.111 6.24H141.471V16.28H121.431V20.28H116.151V12.52H136.231V10.28H116.111V6.24ZM116.151 18.68H142.191V22.72H116.151V18.68ZM126.111 20.64H131.431V27.68H126.111V20.64ZM115.711 31.68H141.711V42.44H136.391V35.88H115.711V31.68Z" fill="black"/>
</svg>
