<svg width="130" height="50" viewBox="0 0 130 50" fill="none" xmlns="http://www.w3.org/2000/svg">
<rect width="130" height="50" rx="20" fill="#F470A4" fill-opacity="0.2"/>
<path d="M35.8849 31V20.8182H38.0376V29.2251H42.4027V31H35.8849ZM52.7884 25.9091C52.7884 27.0194 52.5779 27.964 52.157 28.7429C51.7393 29.5218 51.1693 30.1167 50.4467 30.5277C49.7275 30.9354 48.9188 31.1392 48.0206 31.1392C47.1158 31.1392 46.3037 30.9337 45.5845 30.5227C44.8653 30.1117 44.2969 29.5168 43.8793 28.7379C43.4616 27.959 43.2528 27.0161 43.2528 25.9091C43.2528 24.7988 43.4616 23.8542 43.8793 23.0753C44.2969 22.2964 44.8653 21.7031 45.5845 21.2955C46.3037 20.8845 47.1158 20.679 48.0206 20.679C48.9188 20.679 49.7275 20.8845 50.4467 21.2955C51.1693 21.7031 51.7393 22.2964 52.157 23.0753C52.5779 23.8542 52.7884 24.7988 52.7884 25.9091ZM50.6058 25.9091C50.6058 25.1899 50.4981 24.5833 50.2827 24.0895C50.0705 23.5956 49.7706 23.2211 49.3828 22.9659C48.995 22.7107 48.541 22.5831 48.0206 22.5831C47.5002 22.5831 47.0462 22.7107 46.6584 22.9659C46.2706 23.2211 45.969 23.5956 45.7536 24.0895C45.5414 24.5833 45.4354 25.1899 45.4354 25.9091C45.4354 26.6283 45.5414 27.2348 45.7536 27.7287C45.969 28.2225 46.2706 28.5971 46.6584 28.8523C47.0462 29.1075 47.5002 29.2351 48.0206 29.2351C48.541 29.2351 48.995 29.1075 49.3828 28.8523C49.7706 28.5971 50.0705 28.2225 50.2827 27.7287C50.4981 27.2348 50.6058 26.6283 50.6058 25.9091ZM61.1344 24.1094C61.0648 23.8674 60.967 23.6536 60.8411 23.468C60.7151 23.2791 60.561 23.12 60.3787 22.9908C60.1998 22.8582 59.9943 22.7571 59.7623 22.6875C59.5336 22.6179 59.28 22.5831 59.0016 22.5831C58.4812 22.5831 58.0239 22.7124 57.6294 22.9709C57.2383 23.2294 56.9334 23.6056 56.7147 24.0994C56.4959 24.59 56.3865 25.1899 56.3865 25.8991C56.3865 26.6084 56.4943 27.2116 56.7097 27.7088C56.9251 28.206 57.2301 28.5855 57.6245 28.8473C58.0189 29.1058 58.4846 29.2351 59.0215 29.2351C59.5087 29.2351 59.9247 29.1489 60.2694 28.9766C60.6174 28.8009 60.8825 28.554 61.0648 28.2358C61.2504 27.9176 61.3432 27.5414 61.3432 27.1072L61.7807 27.1719H59.1557V25.5511H63.4164V26.8338C63.4164 27.7287 63.2275 28.4976 62.8496 29.1406C62.4718 29.7803 61.9514 30.2741 61.2885 30.6222C60.6257 30.9669 59.8667 31.1392 59.0115 31.1392C58.057 31.1392 57.2185 30.9287 56.4959 30.5078C55.7734 30.0836 55.2099 29.482 54.8056 28.7031C54.4045 27.9209 54.204 26.9929 54.204 25.919C54.204 25.0937 54.3233 24.358 54.562 23.7116C54.8039 23.062 55.142 22.5118 55.5762 22.0611C56.0104 21.6103 56.5158 21.2673 57.0925 21.032C57.6692 20.7966 58.294 20.679 58.9668 20.679C59.5435 20.679 60.0804 20.7635 60.5776 20.9325C61.0748 21.0982 61.5156 21.3336 61.9 21.6385C62.2878 21.9434 62.6043 22.3063 62.8496 22.7273C63.0949 23.1449 63.2523 23.6056 63.3219 24.1094H61.1344ZM67.1861 20.8182V31H65.0334V20.8182H67.1861ZM77.4735 20.8182V31H75.6142L71.1845 24.5916H71.1099V31H68.9572V20.8182H70.8464L75.2413 27.2216H75.3308V20.8182H77.4735Z" fill="#F470A4"/>
<path d="M88 21L92.5 25.5M92.5 25.5L88 30M92.5 25.5H83" stroke="#F470A4" stroke-width="2"/>
</svg>
