<svg width="123" height="50" viewBox="0 0 123 50" fill="none" xmlns="http://www.w3.org/2000/svg">
<rect width="123" height="50" rx="20" fill="#F470A4" fill-opacity="0.2"/>
<path d="M34.464 19.2962H36.34V28.7742H34.464V19.2962ZM27.702 30.5382H36.662V32.0222H27.702V30.5382ZM27.702 27.9342H29.564V31.4062H27.702V27.9342ZM28.724 21.8442H30.25V22.3062C30.25 24.6302 29.06 26.6882 26.554 27.4162L25.672 25.9602C27.8 25.3442 28.724 23.8182 28.724 22.3062V21.8442ZM29.074 21.8442H30.586V22.3062C30.586 23.7202 31.524 25.1622 33.652 25.7502L32.784 27.2062C30.264 26.5062 29.074 24.5322 29.074 22.3062V21.8442ZM26.106 20.7802H33.19V22.2362H26.106V20.7802ZM28.724 19.3522H30.586V21.3822H28.724V19.3522ZM39.7829 20.0382H47.9169V21.5082H39.7829V20.0382ZM38.4529 25.5542H50.1709V27.0522H38.4529V25.5542ZM43.3109 26.6042H45.1869V32.2602H43.3109V26.6042ZM46.9649 20.0382H48.7989V21.1862C48.7989 22.5862 48.7989 24.1542 48.2949 26.4502L46.4609 26.2402C46.9649 24.0702 46.9649 22.5302 46.9649 21.1862V20.0382ZM51.8918 20.2202H57.4358V21.7182H51.8918V20.2202ZM53.4878 23.2442H55.3358V26.4922H53.4878V23.2442ZM56.7078 20.2202H58.5418V21.0322C58.5418 21.9422 58.5418 23.2302 58.2338 24.8402L56.4278 24.6442C56.7078 23.0482 56.7078 21.9282 56.7078 21.0322V20.2202ZM59.8018 19.2822H61.6778V28.9842H59.8018V19.2822ZM60.9358 23.2302H63.2178V24.7562H60.9358V23.2302ZM53.0258 30.5382H62.0838V32.0222H53.0258V30.5382ZM53.0258 28.1162H54.8878V31.0002H53.0258V28.1162ZM51.3038 27.2482L51.1358 25.7782C53.3758 25.7782 56.4978 25.7362 59.1018 25.3722L59.2138 26.6882C56.5398 27.1922 53.5298 27.2482 51.3038 27.2482ZM73.1287 19.2682H74.9907V32.2742H73.1287V19.2682ZM64.8967 27.7382H66.0447C68.3407 27.7382 70.1747 27.6542 72.2327 27.3042L72.4147 28.8022C70.3147 29.1802 68.4107 29.2502 66.0447 29.2502H64.8967V27.7382ZM64.8827 20.3742H71.0007V25.3862H66.7867V28.2982H64.8967V23.9162H69.0967V21.8582H64.8827V20.3742Z" fill="#F470A4"/>
<ellipse cx="93.6587" cy="22" rx="4.5" ry="4" fill="#F470A4"/>
<path fill-rule="evenodd" clip-rule="evenodd" d="M101.282 30.5446C101.344 30.6448 101.323 30.775 101.233 30.8516C99.6616 32.1913 97.6238 33 95.397 33H91.9204C89.6937 33 87.6559 32.1914 86.0845 30.8517C85.9946 30.7751 85.9732 30.6449 86.0359 30.5447C87.3419 28.4552 90.2638 27 93.6588 27C97.0537 27 99.9755 28.4551 101.282 30.5446Z" fill="#F470A4"/>
</svg>
