<svg width="148" height="48" viewBox="0 0 148 48" fill="none" xmlns="http://www.w3.org/2000/svg">
<rect y="27" width="148" height="21" fill="#F470A4" fill-opacity="0.2"/>
<path d="M25.44 5.52H30.76V27.12H25.44V5.52ZM29.28 13.92H35.68V18.28H29.28V13.92ZM2.68 7.68H7.96V12.36H15.2V7.68H20.48V25.32H2.68V7.68ZM7.96 16.44V21.16H15.2V16.44H7.96ZM6.68 28.76H30.96V32.96H12V40.92H6.68V28.76ZM6.68 37.92H31.68V42.12H6.68V37.92ZM38.3969 24.4H71.8769V28.64H38.3969V24.4ZM42.4369 37.68H68.1169V41.92H42.4369V37.68ZM42.4369 31.12H47.7569V39.04H42.4369V31.12ZM55.1569 6.6C63.1969 6.6 68.5569 9.52 68.5569 14.24C68.5569 18.96 63.1969 21.88 55.1569 21.88C47.0769 21.88 41.7569 18.96 41.7569 14.24C41.7569 9.52 47.0769 6.6 55.1569 6.6ZM55.1569 10.84C50.1569 10.84 47.2369 12 47.2369 14.24C47.2369 16.52 50.1569 17.64 55.1569 17.64C60.1569 17.64 63.0769 16.52 63.0769 14.24C63.0769 12 60.1569 10.84 55.1569 10.84ZM100.634 5.56H105.994V32.56H100.634V5.56ZM81.3138 37.68H106.914V41.92H81.3138V37.68ZM81.3138 29.96H86.6338V39.88H81.3138V29.96ZM83.8737 7.56H88.2738V11.16C88.2738 18.4 84.9538 25.08 77.7538 27.6L75.0738 23.36C81.2738 21.24 83.8737 16.08 83.8737 11.16V7.56ZM84.9538 7.56H89.3138V11.16C89.3138 16 91.8338 20.76 97.9138 22.72L95.1938 26.96C88.1938 24.6 84.9538 18.32 84.9538 11.16V7.56ZM120.311 12H124.591V13.36C124.591 19.8 121.311 25.6 114.231 27.64L111.751 23.48C117.711 21.8 120.311 17.56 120.311 13.36V12ZM121.311 12H125.631V13.36C125.631 17.16 128.271 21.04 134.231 22.6L131.831 26.72C124.711 24.84 121.311 19.44 121.311 13.36V12ZM113.031 9.36H132.911V13.52H113.031V9.36ZM120.311 5.4H125.631V11H120.311V5.4ZM131.871 15.4H138.951V19.68H131.871V15.4ZM137.671 5.52H142.991V27.88H137.671V5.52ZM130.431 28.52C138.271 28.52 143.111 31.08 143.111 35.52C143.111 39.96 138.271 42.56 130.431 42.56C122.591 42.56 117.751 39.96 117.751 35.52C117.751 31.08 122.591 28.52 130.431 28.52ZM130.431 32.56C125.591 32.56 123.071 33.52 123.071 35.52C123.071 37.52 125.591 38.52 130.431 38.52C135.311 38.52 137.831 37.52 137.831 35.52C137.831 33.52 135.311 32.56 130.431 32.56Z" fill="black"/>
</svg>
